<svg width="525" height="401" viewBox="0 0 525 401" fill="none" xmlns="http://www.w3.org/2000/svg">
<g clip-path="url(#clip0_202_3)">
<path d="M498.733 371.22H445.339L488.398 351.859C492.245 350.118 495.246 346.924 496.743 342.976C498.24 339.028 498.112 334.648 496.386 330.795L457.081 243.454L440.21 205.949L384.043 81.0846C383.185 79.1763 381.96 77.4559 380.436 76.0215C378.913 74.5872 377.121 73.4672 375.164 72.7255C373.208 71.9838 371.124 71.635 369.032 71.6991C366.94 71.7631 364.882 72.2387 362.974 73.0987L300.288 101.28C298.263 102.185 296.453 103.509 294.977 105.164L273.022 12.2787C272.543 10.2417 271.667 8.31908 270.445 6.62088C269.222 4.92267 267.676 3.48225 265.896 2.38208C264.116 1.2819 262.136 0.543579 260.07 0.209385C258.004 -0.12481 255.892 -0.0483146 253.856 0.434491L203.617 12.2961C199.508 13.2742 195.955 15.8418 193.737 19.4356C191.52 23.0293 190.818 27.3557 191.787 31.4658L207.797 99.2463C206.078 98.6244 204.263 98.3039 202.435 98.2991H128.64C126.693 98.3036 124.763 98.6659 122.947 99.368V50.4009C122.942 45.9105 121.156 41.6053 117.98 38.4301C114.804 35.2549 110.498 33.4691 106.007 33.4645H39.0788C36.8519 33.4622 34.6463 33.8984 32.588 34.7483C30.5297 35.5982 28.659 36.8451 27.0827 38.4178C25.5064 39.9905 24.2553 41.8582 23.401 43.9143C22.5467 45.9703 22.1058 48.1745 22.1035 50.4009V362.018C22.1013 365.297 23.0591 368.505 24.8589 371.246H14.8892C11.0015 371.34 7.30461 372.95 4.58818 375.732C1.87174 378.514 0.351131 382.248 0.351131 386.136C0.351131 390.024 1.87174 393.758 4.58818 396.54C7.30461 399.322 11.0015 400.932 14.8892 401.026H498.733C502.621 400.932 506.318 399.322 509.034 396.54C511.751 393.758 513.271 390.024 513.271 386.136C513.271 382.248 511.751 378.514 509.034 375.732C506.318 372.95 502.621 371.34 498.733 371.246V371.22ZM352.631 349.052L345.364 318.351L338.924 291.109L306.503 153.966L348.467 247.234L365.338 284.73L404.261 371.246H328.102L340.784 368.257C344.898 367.275 348.456 364.702 350.676 361.102C352.897 357.502 353.6 353.169 352.631 349.052ZM449.841 252.317L487.042 334.992C487.663 336.368 487.712 337.934 487.179 339.347C486.647 340.759 485.575 341.903 484.2 342.526L421.514 370.725C420.134 371.341 418.566 371.385 417.153 370.848C415.741 370.31 414.599 369.235 413.978 367.857L376.777 285.165L377.646 284.756L449.841 252.317ZM301.496 113.784C301.761 113.085 302.161 112.444 302.674 111.9C303.187 111.355 303.803 110.918 304.486 110.613L367.181 82.4229C367.914 82.0944 368.707 81.9227 369.51 81.9188C370.2 81.9174 370.884 82.0441 371.527 82.2925C372.229 82.5553 372.871 82.9549 373.418 83.4681C373.964 83.9812 374.402 84.5977 374.708 85.2818L428.781 205.471L363.539 234.807L355.716 238.335L301.609 118.181C301.297 117.493 301.126 116.75 301.107 115.994C301.088 115.239 301.22 114.488 301.496 113.784ZM297.733 306.064L330.136 298.399L334.23 315.718L293.126 325.425L272.926 330.213L268.841 312.911L297.733 306.064ZM216.203 35.1416L252.822 26.4952C253.478 26.3362 254.159 26.3083 254.827 26.4132C255.494 26.5182 256.134 26.7538 256.709 27.1067C257.285 27.4595 257.786 27.9226 258.182 28.4694C258.578 29.0161 258.863 29.6357 259.019 30.2927L273.795 92.7463C273.95 93.4003 273.974 94.0783 273.867 94.7417C273.759 95.405 273.522 96.0406 273.168 96.6121C272.815 97.1836 272.352 97.6798 271.806 98.0721C271.26 98.4645 270.643 98.7454 269.988 98.8987L233.369 107.589C232.984 107.678 232.591 107.724 232.196 107.728C231.042 107.729 229.922 107.339 229.018 106.623C228.113 105.907 227.478 104.905 227.215 103.782L212.439 41.3287C212.278 40.6754 212.248 39.9967 212.35 39.3317C212.453 38.6667 212.685 38.0284 213.035 37.4535C213.385 36.8787 213.845 36.3785 214.388 35.9818C214.932 35.585 215.548 35.2995 216.203 35.1416ZM122.912 361.991V114.201C122.915 112.692 123.515 111.245 124.582 110.176C125.649 109.108 127.095 108.506 128.605 108.501H202.435C203.946 108.503 205.395 109.105 206.464 110.173C207.533 111.242 208.134 112.69 208.136 114.201V362.999C208.134 364.51 207.532 365.958 206.463 367.025C205.394 368.092 203.945 368.691 202.435 368.691H128.64C127.131 368.689 125.684 368.089 124.617 367.022C123.55 365.955 122.949 364.508 122.947 362.999L122.912 361.991ZM32.3426 126H112.673V157.155H32.3426V126ZM32.3426 287.476H112.673V298.295H32.3426V287.476ZM218.349 362.999V143.955L257.654 310.27L264.095 337.504L271.353 368.222C271.592 369.244 271.933 370.24 272.37 371.194H216.055C217.564 368.727 218.363 365.891 218.367 362.999H218.349Z" fill="#FBF6F6"/>
<rect x="119" y="246" width="97" height="51" fill="#FBF6F6"/>
</g>
<defs>
<clipPath id="clip0_202_3">
<rect width="525" height="401" fill="white"/>
</clipPath>
</defs>
</svg>